<?xml version="1.0" encoding="utf-8"?>
<!-- Generator: Adobe Illustrator 24.1.2, SVG Export Plug-In . SVG Version: 6.00 Build 0)  -->
<svg width="18" height="18" version="1.1"  id="Layer_1" xmlns="http://www.w3.org/2000/svg" xmlns:xlink="http://www.w3.org/1999/xlink" x="0px" y="0px"
	 viewBox="0 0 16 16" style="enable-background:new 0 0 16 16;" xml:space="preserve">
<path d="M8.4,10.8c0,0.2-0.2,0.4-0.4,0.4S7.6,11,7.6,10.8c0-0.2,0.2-0.4,0.4-0.4S8.4,10.6,8.4,10.8z M8,11.7c-0.2,0-0.4,0.2-0.4,0.4
	c0,0.2,0.2,0.4,0.4,0.4s0.4-0.2,0.4-0.4C8.4,11.9,8.2,11.7,8,11.7z M8,5.1c-1.4,0-2.5,1.1-2.5,2.5C5.5,8.9,6.6,10,8,10
	s2.5-1.1,2.5-2.4C10.5,6.2,9.4,5.1,8,5.1z M16,7v1.9l-1.7,0.2c-0.2,0.9-0.5,1.7-1,2.4l1,1.4L13,14.3l-1.4-1
	c-0.4,0.3-0.8,0.5-1.2,0.6L10.2,14l-0.5,0.2l-0.3,0.1l-0.3,0.1L9,16H7.1l-0.2-1.7l-0.3-0.1l-0.3-0.1L5.6,14H5.6
	c-0.2-0.1-0.4-0.2-0.6-0.3l-0.2-0.1l-0.4-0.2l-1.4,1L1.7,13l1-1.4c-0.5-0.7-0.8-1.5-1-2.4L0,9V7.1l1.6-0.2c0.2-0.9,0.5-1.7,1-2.4
	l-1-1.4L3,1.7l1.3,1c0.7-0.5,1.5-0.8,2.4-1L7,0h1.9l0.2,1.6c0.9,0.2,1.7,0.5,2.4,1l1.4-1L14.3,3l-1,1.3c0.5,0.7,0.8,1.5,1,2.4L16,7z
	 M11.4,4.4c-1.9-1.9-5.1-1.9-7,0c-1.9,1.9-1.9,5.1,0,7c0.3-0.9,0.9-1.6,1.8-2.1l1,3.5c0.3,0,0.5,0.1,0.8,0.1c0.2,0,0.5,0,0.7-0.1
	l1-3.5c0.8,0.4,1.5,1.1,1.8,2C13.4,9.4,13.3,6.4,11.4,4.4z"/>
</svg>
