<svg width="18" height="18" id="Layer_1" data-name="Layer 1" xmlns="http://www.w3.org/2000/svg" xmlns:xlink="http://www.w3.org/1999/xlink" viewBox="0 0 100 100"><defs><clipPath id="clip-path"><rect x="7.51" y="3" width="84.73" height="93.7" fill="#12636A"/></clipPath></defs><g clip-path="url(#clip-path)"><path d="M16.37,81.35V12.55H48.22V22.84a5.92,5.92,0,0,0,6,5.64H64.84v7.84a6,6,0,0,0,5.92,6h3.18V28.48l-8.78-8.63-8.1-8.13L48.5,3h-41V90.39H31.59V87.21A6.15,6.15,0,0,0,25.47,81h0ZM44.11,57.14V48.51H53V41.22H44.11V32.36H36.18v8.86H27.32v7.42h8.86v8.5Z" fill="#12636A"/><path d="M92.24,96.7H81.36L64.43,79.77l-.35-.38-3.19,3.18L48.16,69.84,60.55,57.46,73.28,70.19,70.1,73.37l.37.35L91.16,94.41a4.11,4.11,0,0,1,1.08,2.29M61,51.63l18,18,2.17-2.17a4.33,4.33,0,0,0,0-6.12l0,0L69.05,49.15a3.93,3.93,0,0,0-5.55,0ZM40.27,72.38a4.36,4.36,0,0,0,0,6.15L52.43,90.68a3.94,3.94,0,0,0,5.57,0l2.49-2.48-18-18Z" fill="#12636A"/></g></svg>