<svg width="18" height="18"  xmlns="http://www.w3.org/2000/svg" viewBox="0 0 31.84 31.82"><defs><style>.a{fill:#12636A;}</style></defs><path class="a" d="M31.84,24.86l-.07-3.22-2.45.18a5.94,5.94,0,0,0-1.67-2.64L28.76,17l-2.83-1.54-1.12,2.16a6.19,6.19,0,0,0-3.14.13l-1.3-2.05-2.72,1.73,1.26,2a6.52,6.52,0,0,0-1.45,2.78l-2.37.11.13,3.27,2.45-.11a6.06,6.06,0,0,0,1.66,2.64l-1.1,2.16,2.83,1.49,1.12-2.16a6.09,6.09,0,0,0,3.14-.19l1.24,2,2.72-1.72L28,27.73A6.16,6.16,0,0,0,29.41,25Zm-5.26.34,0,0a3.46,3.46,0,1,1-1.47-4.69A3.46,3.46,0,0,1,26.56,25.22ZM25,24.38l0,0a1.63,1.63,0,0,1-2.2.66,1.65,1.65,0,1,1,1.51-2.93h0A1.66,1.66,0,0,1,25,24.38ZM0,11.27H11.35V0H0ZM2.8,2.84H8.61V8.42H2.8ZM0,25.64H11.35V14.37H0Zm2.8-8.42H8.61v5.57H2.8ZM25.86,0H14.52V11.27H25.86ZM23.13,8.42H17.32V2.84h5.81Z"/></svg>