<svg width="18" height="18" id="Layer_1" data-name="Layer 1" xmlns="http://www.w3.org/2000/svg" viewBox="0 0 100 100"><defs><style>.cls-1{fill:#12636A;}.cls-2{fill:#12636A;}</style></defs><path class="cls-1" d="M20.15,75.32V10H45V20.49a6.06,6.06,0,0,0,6.07,5.78H61.75V39.69a6.05,6.05,0,0,0,6.07,6h3.33V26.27H71l-8.75-8.83L54,9.2,45.22.31H11.07V84.69H34.42v-3.1a6.28,6.28,0,0,0-6.3-6.27Z"/><path class="cls-2" d="M95,69.33H89.84V92.66H95A1.66,1.66,0,0,0,96.61,91V71A1.66,1.66,0,0,0,95,69.33Z"/><path class="cls-2" d="M39.74,91a1.67,1.67,0,0,0,1.67,1.67h5.11V69.33H41.41A1.67,1.67,0,0,0,39.74,71"/><path class="cls-2" d="M66.9,71a3.31,3.31,0,0,0-3,1.84L58.85,83a6.64,6.64,0,0,0,8.62-3.13l1.1-2.2H71.8a3.36,3.36,0,0,1,2.35,1L86.5,91V71Z"/><path class="cls-2" d="M67.25,98.61l14.23-4.47a4.8,4.8,0,0,0,2.15-1.31L71.8,81H70.63l-.1.19a10.11,10.11,0,0,1-8.15,5.65,12,12,0,0,1-6.49-1.49,1.68,1.68,0,0,1-.81-2.27l5.86-11.73a6.66,6.66,0,0,1,6-3.68h7.19a8,8,0,0,0,.75-3.34,1.66,1.66,0,0,0-1.66-1.66H60.24a5,5,0,0,0-4.47,2.76l-1.49,3a1.65,1.65,0,0,1-1.49.92H49.85V92.66h7.64l4.72,4.72a4.94,4.94,0,0,0,5,1.23"/><path class="cls-1" d="M44.74,42.41a2.48,2.48,0,0,0,2.47-2.47V38.1H42.52V33.69H38.14V38.1H33.57v11h9.32v2.4h-7a2.3,2.3,0,0,0-2.31,2.3v2h4.57v4.42h4.38V55.82h4.69v-11H37.89v-2.4Z"/></svg>