<?xml version="1.0" encoding="utf-8"?>
<!-- Generator: Adobe Illustrator 24.1.2, SVG Export Plug-In . SVG Version: 6.00 Build 0)  -->
<svg fill="#12636A" width="18" height="18" version="1.1" id="Layer_1" xmlns="http://www.w3.org/2000/svg" xmlns:xlink="http://www.w3.org/1999/xlink" x="0px" y="0px"
	 viewBox="0 0 16 16" style="enable-background:new 0 0 16 16;" xml:space="preserve">
<path d="M10.2,11.3H7v-3c0-0.9,0.6-1.5,1.4-1.5h0.3c0.8,0,1.5,0.7,1.5,1.5V11.3z M10,2.2l-1.4-1l-1.4,1l-6,4.3
	C1.7,7.2,2.6,7.4,3.3,7v3.6C2,10.9,1.1,12,1.1,13.3c0,0.2,0.1,0.5,0.1,0.7c-0.5-0.1-1.1,0.2-1.2,0.8c-0.1,0.6,0.2,1.1,0.8,1.2h6.9
	c0.3-0.3,0.4-0.7,0.4-1.2c0-1-0.8-1.7-1.7-1.7c0,0,0,0-0.1,0H6.1c0-0.9-0.6-1.7-1.3-2.1V6l3.7-2.7l3.9,2.8v8.3H11
	c-0.8,0-1.5,0.7-1.5,1.5h2.9h1.3H14V7.1c0.7,0.3,1.5,0.1,2-0.6L10,2.2z M4.8,0H3.2v3.6l1.6-1.1V0z"/>
</svg>
