<?xml version="1.0" encoding="utf-8"?>
<!-- Generator: Adobe Illustrator 24.1.2, SVG Export Plug-In . SVG Version: 6.00 Build 0)  -->
<svg width="18" height="18" version="1.1" id="Layer_1" xmlns="http://www.w3.org/2000/svg" xmlns:xlink="http://www.w3.org/1999/xlink" x="0px" y="0px"
	 viewBox="0 0 32 32" style="enable-background:new 0 0 32 32;" xml:space="preserve">
<style type="text/css">
	.st0{fill:#12636A;}
</style>
<path class="st0" d="M28.1,3.4C28.1,3.4,28.1,3.4,28.1,3.4C28.1,3.4,28.1,3.4,28.1,3.4L28.1,3.4z M30.4,10.4
	c-1.7,1.3-4.1,0.9-5.4-0.8L18.8,11c0,0.2,0,0.4,0,0.6c0,4.3-3.5,7.8-7.8,7.8c-0.3,0-0.7,0-1-0.1l-1.8,5.5c1.2,0.7,1.9,2,1.9,3.4
	c0,2.1-1.7,3.9-3.9,3.9c-2.1,0-3.9-1.7-3.9-3.9c0-2.1,1.7-3.9,3.9-3.9c0.2,0,0.4,0,0.5,0L8.5,19c-1-0.3-1.9-0.8-2.7-1.5
	c-3.3-2.8-3.6-7.8-0.8-11L3.5,4.8C3.2,4.9,2.8,5,2.5,5C1.1,5,0,3.9,0,2.5C0,1.1,1.1,0,2.5,0C3.9,0,5,1.1,5,2.5
	c0,0.4-0.1,0.9-0.3,1.3l1.5,1.6C7,4.7,7.9,4.2,9,4c4.2-1.1,8.5,1.4,9.6,5.5l5.8-1.3c-0.1-0.3-0.1-0.6-0.1-0.9c0-2.1,1.7-3.9,3.9-3.9
	c1.2,0,2.4,0.6,3.1,1.5C32.5,6.7,32.1,9.1,30.4,10.4z M14,7.3h-2V5.1h-2v2.2H7.9v5.2h4.2v1.4H8.9c-0.6,0-1,0.4-1,1v0.9H10V18h1.9
	v-2.2H14v-5.2H9.9V9.2h3c0.6,0,1.1-0.5,1.1-1.1V7.3z"/>
</svg>
