<svg width="20" height="20" viewBox="0 0 20 20" fill="none" xmlns="http://www.w3.org/2000/svg">
<mask id="mask0_3_2825" style="mask-type:alpha" maskUnits="userSpaceOnUse" x="0" y="0" width="20" height="20">
<rect width="20" height="20" fill="#D9D9D9"/>
</mask>
<g mask="url(#mask0_3_2825)">
<path d="M5.00004 15.8333H7.50004V10.8333H12.5V15.8333H15V8.33329L10 4.58329L5.00004 8.33329V15.8333ZM5.00004 17.5C4.54171 17.5 4.14935 17.3368 3.82296 17.0104C3.49657 16.684 3.33337 16.2916 3.33337 15.8333V8.33329C3.33337 8.0694 3.3924 7.8194 3.51046 7.58329C3.62851 7.34718 3.79171 7.15274 4.00004 6.99996L9.00004 3.24996C9.15282 3.13885 9.31254 3.05551 9.47921 2.99996C9.64587 2.9444 9.81948 2.91663 10 2.91663C10.1806 2.91663 10.3542 2.9444 10.5209 2.99996C10.6875 3.05551 10.8473 3.13885 11 3.24996L16 6.99996C16.2084 7.15274 16.3716 7.34718 16.4896 7.58329C16.6077 7.8194 16.6667 8.0694 16.6667 8.33329V15.8333C16.6667 16.2916 16.5035 16.684 16.1771 17.0104C15.8507 17.3368 15.4584 17.5 15 17.5H10.8334V12.5H9.16671V17.5H5.00004Z" fill="#69748C"/>
</g>
</svg>
