<svg width="18" height="18" viewBox="0 0 20 20" fill="none" xmlns="http://www.w3.org/2000/svg">
<mask id="mask0_3_2860" style="mask-type:alpha" maskUnits="userSpaceOnUse" x="0" y="0" width="20" height="20">
<rect width="20" height="20" fill="#12636A"/>
</mask>
<g mask="url(#mask0_3_2860)">
<path d="M9.16663 11.6666H10.8333C11.0694 11.6666 11.2673 11.5868 11.427 11.427C11.5868 11.2673 11.6666 11.0694 11.6666 10.8333C11.6666 10.5972 11.5868 10.3993 11.427 10.2395C11.2673 10.0798 11.0694 9.99996 10.8333 9.99996H9.16663C8.93052 9.99996 8.7326 10.0798 8.57288 10.2395C8.41315 10.3993 8.33329 10.5972 8.33329 10.8333C8.33329 11.0694 8.41315 11.2673 8.57288 11.427C8.7326 11.5868 8.93052 11.6666 9.16663 11.6666ZM9.16663 9.16663H14.1666C14.4027 9.16663 14.6007 9.08677 14.7604 8.92704C14.9201 8.76732 15 8.5694 15 8.33329C15 8.09718 14.9201 7.89927 14.7604 7.73954C14.6007 7.57982 14.4027 7.49996 14.1666 7.49996H9.16663C8.93052 7.49996 8.7326 7.57982 8.57288 7.73954C8.41315 7.89927 8.33329 8.09718 8.33329 8.33329C8.33329 8.5694 8.41315 8.76732 8.57288 8.92704C8.7326 9.08677 8.93052 9.16663 9.16663 9.16663ZM9.16663 6.66663H14.1666C14.4027 6.66663 14.6007 6.58677 14.7604 6.42704C14.9201 6.26732 15 6.0694 15 5.83329C15 5.59718 14.9201 5.39926 14.7604 5.23954C14.6007 5.07982 14.4027 4.99996 14.1666 4.99996H9.16663C8.93052 4.99996 8.7326 5.07982 8.57288 5.23954C8.41315 5.39926 8.33329 5.59718 8.33329 5.83329C8.33329 6.0694 8.41315 6.26732 8.57288 6.42704C8.7326 6.58677 8.93052 6.66663 9.16663 6.66663ZM6.66663 15C6.20829 15 5.81593 14.8368 5.48954 14.5104C5.16315 14.184 4.99996 13.7916 4.99996 13.3333V3.33329C4.99996 2.87496 5.16315 2.4826 5.48954 2.15621C5.81593 1.82982 6.20829 1.66663 6.66663 1.66663H16.6666C17.125 1.66663 17.5173 1.82982 17.8437 2.15621C18.1701 2.4826 18.3333 2.87496 18.3333 3.33329V13.3333C18.3333 13.7916 18.1701 14.184 17.8437 14.5104C17.5173 14.8368 17.125 15 16.6666 15H6.66663ZM6.66663 13.3333H16.6666V3.33329H6.66663V13.3333ZM3.33329 18.3333C2.87496 18.3333 2.4826 18.1701 2.15621 17.8437C1.82982 17.5173 1.66663 17.125 1.66663 16.6666V5.83329C1.66663 5.59718 1.74649 5.39926 1.90621 5.23954C2.06593 5.07982 2.26385 4.99996 2.49996 4.99996C2.73607 4.99996 2.93399 5.07982 3.09371 5.23954C3.25343 5.39926 3.33329 5.59718 3.33329 5.83329V16.6666H14.1666C14.4027 16.6666 14.6007 16.7465 14.7604 16.9062C14.9201 17.0659 15 17.2638 15 17.5C15 17.7361 14.9201 17.934 14.7604 18.0937C14.6007 18.2534 14.4027 18.3333 14.1666 18.3333H3.33329Z" fill="#12636A"/>
</g>
</svg>
