<svg width="76" height="29" viewBox="0 0 76 29" fill="none" xmlns="http://www.w3.org/2000/svg">
<g clip-path="url(#clip0)">
<path d="M69.476 0.26783C68.7301 1.32953 68.0914 2.46288 67.5691 3.65116C67.5691 3.65116 67.5691 3.65116 67.5691 3.65116C66.6442 6.09393 66.3355 8.78126 66.6046 10.4507C66.7503 11.3594 67.0686 11.9655 67.5518 12.065C66.8766 12.5919 65.8398 12.9901 65.1058 12.3686C64.7836 12.0457 64.611 11.2279 64.5782 10.1452C64.5242 8.4323 64.827 6.0601 65.4462 3.97693C65.8263 3.0934 66.2034 2.21276 66.6249 1.3534C67.1718 0.226263 68.307 -0.386604 69.476 0.26783Z" fill="url(#paint0_linear)"/>
<path d="M64.1162 2.47853V2.48337C63.9144 2.76689 63.7293 3.0619 63.5616 3.3669C62.3396 5.58153 61.5901 8.75897 61.729 10.7068C61.7907 11.5565 62.0184 12.1732 62.4563 12.3724C61.7242 12.759 60.8629 12.8876 60.0855 12.587C59.6823 12.2264 59.5232 11.1843 59.5849 9.86387C59.6831 8.10188 60.0497 6.36531 60.6719 4.71443C61.0645 3.96623 61.4155 3.06143 62.0859 2.5375C62.4142 2.29001 62.8197 2.16768 63.2298 2.1924C63.2935 2.19627 64.1471 2.37897 64.1162 2.47853Z" fill="url(#paint1_linear)"/>
<path d="M69.4828 0.270668C68.2058 2.04547 67.3715 4.02327 66.5709 6.04457C65.7993 8.004 64.9071 10.0466 63.4574 11.6116C62.6347 12.5 61.2661 13.0403 60.0894 12.585C62.2402 10.4303 63.7545 7.84837 64.9814 5.07887C65.5292 3.83477 66.0356 2.5723 66.6317 1.35333C67.1795 0.228134 68.3147 -0.386666 69.4828 0.270668Z" fill="url(#paint2_linear)"/>
<path d="M64.1075 2.48244C62.9829 4.20794 62.0897 6.06781 61.0992 7.87161C60.7008 8.59757 60.2504 9.32934 59.5907 9.84554C58.9155 10.3733 57.8787 10.7706 57.1447 10.1491C57.7639 9.29647 58.4805 8.55311 59.0341 7.64734C59.5878 6.74157 60.0874 5.78457 60.6025 4.84401C61.0259 4.07067 61.3741 3.08951 62.0868 2.53174C62.4145 2.28522 62.8189 2.16358 63.2279 2.18857C63.2915 2.19631 64.1721 2.38481 64.1075 2.48244Z" fill="url(#paint3_linear)"/>
<path d="M72.0744 4.70285C70.9469 6.42931 70.0566 8.28821 69.0661 10.093C68.6677 10.818 68.2173 11.5497 67.5576 12.0669C66.8979 12.5841 65.8456 12.992 65.1116 12.3704C65.7318 11.5178 66.4474 10.7745 67.0011 9.86871C67.5547 8.96295 68.0553 8.00595 68.5694 7.06538C68.9928 6.29205 69.341 5.30991 70.0538 4.75311C70.3813 4.50636 70.7858 4.38469 71.1948 4.40995C71.2584 4.41671 72.139 4.60521 72.0744 4.70285Z" fill="url(#paint4_linear)"/>
<path d="M57.5817 5.83098C57.1428 5.54098 56.6066 5.29351 56.0761 5.45881C55.6256 5.59898 55.3209 5.98855 55.0585 6.35781C54.419 7.25778 53.7603 8.13455 52.9607 8.89918C54.2146 9.71698 55.5195 8.99585 56.2487 7.87161C56.3587 7.69955 57.6125 5.85901 57.5817 5.83098Z" fill="url(#paint5_linear)"/>
<path d="M76.0039 5.36019C75.5293 5.13883 74.9632 4.96579 74.4607 5.20263C74.0334 5.40466 73.7855 5.83289 73.5772 6.23599C73.066 7.21619 72.5316 8.17706 71.8497 9.04609C73.1885 9.67249 74.3883 8.79959 74.9516 7.59609C75.0394 7.40083 76.0347 5.38436 76.0039 5.36019Z" fill="url(#paint6_linear)"/>
<path d="M0.00939941 16.1927H1.11281L3.02351 21.2996L4.9429 16.1927H6.04727V22.2692H5.28241V17.2145H5.26601L3.37556 22.2692H2.684L0.790657 17.2145H0.771367V22.2692H0.00939941V16.1927Z" fill="#2A2D2E"/>
<path d="M9.46003 16.1927H10.3512L12.7211 22.2692H11.8289L11.1672 20.4393H8.60257L7.92741 22.2692H7.09021L9.46003 16.1927ZM8.8572 19.7587H10.9116L9.90177 16.9245H9.88441L8.8572 19.7587Z" fill="#2A2D2E"/>
<path d="M17.2465 17.9713C17.15 17.1013 16.5713 16.7292 15.7428 16.7292C15.0677 16.7292 14.3848 16.9757 14.3848 17.7674C14.3848 18.5165 15.3493 18.6267 16.3292 18.8481C17.3092 19.0695 18.265 19.4097 18.265 20.6016C18.265 21.895 16.9996 22.4141 15.8962 22.4141C14.5372 22.4141 13.3884 21.75 13.3884 20.2691H14.1533C14.1533 21.2909 15.0021 21.7336 15.9193 21.7336C16.6495 21.7336 17.4568 21.5035 17.4568 20.6268C17.4568 19.7925 16.4922 19.6485 15.52 19.4358C14.5478 19.2232 13.5755 18.9419 13.5755 17.8273C13.5755 16.5929 14.6712 16.0477 15.7756 16.0477C17.015 16.0477 17.9573 16.6354 18.0085 17.9713H17.2465Z" fill="#2A2D2E"/>
<path d="M21.042 16.8742H19.0165V16.1927H23.8651V16.8742H21.8483V22.2692H21.042V16.8742Z" fill="#2A2D2E"/>
<path d="M24.9636 16.1927H29.1506V16.8742H25.7748V18.8075H28.9249V19.4842H25.7709V21.5867H29.1757V22.2634H24.9636V16.1927Z" fill="#2A2D2E"/>
<path d="M30.5752 16.1927H33.4302C34.5673 16.1927 35.2724 16.8143 35.2724 17.7848C35.2724 18.5166 34.9502 19.1207 34.2191 19.3247V19.3421C34.9242 19.4784 35.0689 19.9975 35.1277 20.593C35.1865 21.1884 35.1451 21.8496 35.4846 22.2692H34.5847C34.3551 22.0227 34.4824 21.3673 34.3638 20.7718C34.2789 20.1754 34.1343 19.6737 33.353 19.6737H31.3835V22.2692H30.5752V16.1927ZM33.0636 18.996C33.8198 18.996 34.4651 18.8027 34.4651 17.9153C34.4651 17.3189 34.142 16.8771 33.3868 16.8771H31.3835V18.996H33.0636Z" fill="#2A2D2E"/>
<path d="M42.5149 22.2692H41.1906L40.1634 18.1328H40.146L39.1352 22.2692H37.7849L36.1799 16.1927H37.5139L38.4736 20.3291H38.4899L39.5451 16.1927H40.7932L41.8291 20.3803H41.8465L42.8399 16.1927H44.1459L42.5149 22.2692Z" fill="#2A2D2E"/>
<path d="M47.7705 16.0467C49.6475 16.0467 50.7518 17.4513 50.7518 19.256C50.7518 21.0086 49.6475 22.4132 47.7705 22.4132C45.8936 22.4132 44.7902 21.0086 44.7902 19.256C44.7902 17.4522 45.8936 16.0467 47.7705 16.0467ZM47.7705 21.2899C48.9684 21.2899 49.4179 20.2681 49.4179 19.2599C49.4179 18.1966 48.9684 17.1738 47.7705 17.1738C46.5726 17.1738 46.1231 18.1927 46.1231 19.257C46.1231 20.2691 46.5735 21.2909 47.7705 21.2909V21.2899Z" fill="#2A2D2E"/>
<path d="M52.0839 16.1927H55.3536C56.4406 16.1927 57.1283 16.9506 57.1283 17.8689C57.1283 18.5842 56.8389 19.1256 56.1686 19.3924V19.4098C56.8225 19.5799 57.0087 20.2189 57.0511 20.8317C57.0771 21.2184 57.0685 21.9289 57.3067 22.2692H55.9728C55.8117 21.8825 55.8291 21.3025 55.7606 20.8143C55.6641 20.1754 55.4211 19.895 54.7507 19.895H53.4168V22.2692H52.0839V16.1927ZM53.4168 18.9467H54.881C55.4751 18.9467 55.7972 18.6915 55.7972 18.0767C55.7972 17.489 55.4751 17.2338 54.881 17.2338H53.4168V18.9467Z" fill="#2A2D2E"/>
<path d="M58.6426 16.1927H59.9755V18.7118L62.3454 16.1927H64.0053L61.6326 18.5929L64.231 22.2663H62.5624L60.7365 19.5345L59.9717 20.3078V22.2653H58.6426V16.1927Z" fill="#2A2D2E"/>
<path d="M66.1022 20.2527C66.1022 21.0608 66.7311 21.376 67.4439 21.376C67.9117 21.376 68.6244 21.2397 68.6244 20.6181C68.6244 19.9627 67.7159 19.8525 66.8246 19.6137C65.9334 19.375 65.0152 19.027 65.0152 17.8863C65.0152 16.6441 66.1871 16.0496 67.2828 16.0496C68.5482 16.0496 69.7114 16.6035 69.7114 18.0071H68.4209C68.3785 17.2754 67.8605 17.0888 67.223 17.0888C66.7986 17.0888 66.3067 17.2667 66.3067 17.778C66.3067 18.2459 66.5961 18.3058 68.1152 18.6973C68.5569 18.8075 69.9149 19.084 69.9149 20.4673C69.9149 21.5819 69.0401 22.4161 67.3927 22.4161C66.0511 22.4161 64.7943 21.752 64.8117 20.2546L66.1022 20.2527Z" fill="#2A2D2E"/>
<path d="M16.0911 10.5589C16.023 10.37 15.9166 10.1972 15.7786 10.0514L15.7448 10.0186C15.5056 10.2641 15.3262 10.4874 15.359 10.8799C15.359 10.9147 15.359 10.9514 15.3677 10.9891C15.3764 11.0671 15.3803 11.1455 15.3792 11.224C15.3795 11.3434 15.3679 11.4626 15.3445 11.5797C15.3236 11.6897 15.2835 11.7951 15.2259 11.891C15.1701 11.9827 15.0921 12.0588 14.9992 12.1124C14.8904 12.1658 14.7708 12.1936 14.6496 12.1936C14.5284 12.1936 14.4088 12.1658 14.3 12.1124C14.2086 12.0582 14.132 11.9821 14.0772 11.891C14.0196 11.7951 13.9794 11.6897 13.9585 11.5797C13.9352 11.4626 13.9235 11.3434 13.9238 11.224C13.9236 11.1036 13.9352 10.9835 13.9585 10.8654C13.9789 10.7553 14.0191 10.6498 14.0772 10.5541C14.136 10.456 14.2203 10.3758 14.321 10.3218C14.4217 10.2679 14.5351 10.2423 14.6491 10.2477C14.6867 10.2457 14.7244 10.2457 14.762 10.2477C14.9761 10.2641 15.2703 10.2709 15.5654 9.87066C15.479 9.81154 15.3861 9.76257 15.2886 9.7247C14.8764 9.571 14.4228 9.571 14.0106 9.7247C13.8292 9.798 13.665 9.90827 13.5283 10.0485C13.3894 10.1937 13.2826 10.3666 13.2149 10.556C13.1391 10.7687 13.1018 10.9933 13.1049 11.2192C13.1017 11.4438 13.139 11.6671 13.2149 11.8784C13.2826 12.0669 13.3894 12.2389 13.5283 12.383C13.6644 12.5233 13.8288 12.6327 14.0106 12.704C14.4235 12.8535 14.8756 12.8535 15.2886 12.704C15.4734 12.6338 15.6409 12.5243 15.7795 12.383C15.9175 12.2384 16.0239 12.0665 16.092 11.8784C16.1676 11.667 16.2045 11.4437 16.201 11.2192C16.2044 10.9934 16.1675 10.7688 16.092 10.556L16.0911 10.5589ZM1.86156 11.3255C1.80626 11.3435 1.74988 11.358 1.69277 11.369C1.63297 11.3816 1.57027 11.3912 1.49987 11.399C1.42946 11.4067 1.36966 11.4164 1.30696 11.4289C1.24518 11.4401 1.18426 11.4556 1.12467 11.4753C1.0688 11.4935 1.01608 11.5202 0.968417 11.5546C0.924004 11.5885 0.887476 11.6317 0.861356 11.6812C0.832474 11.7414 0.818575 11.8078 0.820846 11.8746C0.817893 11.9414 0.831827 12.0079 0.861356 12.0679C0.886567 12.1173 0.924537 12.159 0.97131 12.1887C1.02077 12.2198 1.07582 12.2408 1.13335 12.2506C1.1969 12.2629 1.26153 12.2687 1.32625 12.268C1.45646 12.2754 1.58621 12.247 1.70145 12.1858C1.78096 12.1387 1.84731 12.0722 1.89435 11.9925C1.93587 11.9212 1.96276 11.8423 1.97344 11.7605C1.98131 11.6963 1.98582 11.6318 1.98695 11.5672V11.254C1.9495 11.2875 1.90548 11.3129 1.8577 11.3284L1.86156 11.3255ZM0.233456 10.1423C0.317307 10.0153 0.428347 9.90864 0.558498 9.83006C0.695923 9.74964 0.845932 9.6931 1.00217 9.66283C1.16529 9.62922 1.33141 9.61238 1.49794 9.61256C1.65092 9.61258 1.8037 9.62356 1.95512 9.64543C2.10216 9.66443 2.24516 9.70719 2.37854 9.77206C2.50282 9.8324 2.61045 9.92235 2.69201 10.034C2.77809 10.1658 2.82061 10.3214 2.81354 10.4787V12.065C2.81354 12.2023 2.81354 12.7417 2.81354 12.7417H2.44316C2.33989 12.7394 2.24099 12.6995 2.16499 12.6294C2.089 12.5592 2.04112 12.4638 2.03035 12.3608C1.90853 12.5165 1.74969 12.6392 1.56835 12.7175C1.3949 12.7892 1.20795 12.8222 1.0205 12.8142C0.88528 12.8148 0.750605 12.7969 0.620227 12.761C0.502142 12.7285 0.391885 12.6722 0.296149 12.5957C0.201954 12.5201 0.127207 12.423 0.0781687 12.3125C0.0239583 12.1855 -0.00267332 12.0484 4.29282e-05 11.9103C-0.00558481 11.7621 0.0252179 11.6147 0.0897429 11.4811C0.144772 11.3748 0.22409 11.2831 0.321227 11.2134C0.41979 11.1448 0.529425 11.0938 0.645304 11.0626C0.766387 11.03 0.889037 11.0035 1.01278 10.9833C1.13624 10.964 1.25777 10.9475 1.37737 10.9359C1.48463 10.9261 1.59102 10.9083 1.69566 10.8828C1.77582 10.8654 1.851 10.83 1.91557 10.7793C1.94253 10.7554 1.96342 10.7254 1.9765 10.6918C1.98958 10.6582 1.99449 10.6219 1.9908 10.586C1.9947 10.5119 1.97977 10.4381 1.9474 10.3714C1.92145 10.3184 1.88182 10.2733 1.83262 10.2409C1.78123 10.2101 1.72414 10.19 1.6648 10.1819C1.59678 10.1719 1.5281 10.1671 1.45936 10.1674C1.313 10.1618 1.16819 10.1991 1.04268 10.2747C0.879681 10.3907 0.875823 10.6334 0.54403 10.6334H0.0897429C0.0934318 10.4604 0.143038 10.2916 0.233456 10.1442V10.1423ZM8.98065 8.5705H8.65561V9.3274H9.47738V9.07703C9.47815 8.94395 9.42634 8.81598 9.33327 8.72107C9.24019 8.62616 9.11342 8.57203 8.98065 8.5705V8.5705ZM11.9514 11.4966C11.9244 11.5927 11.8803 11.6831 11.8211 11.7634C11.764 11.8443 11.6887 11.9105 11.6012 11.9567C11.5058 12.0046 11.4002 12.0285 11.2936 12.0263C11.1818 12.0314 11.071 12.0031 10.9753 11.9451C10.8913 11.8911 10.821 11.8183 10.7698 11.7325C10.7161 11.6432 10.6789 11.545 10.6599 11.4425C10.6387 11.3352 10.628 11.2261 10.628 11.1167C10.6276 11.007 10.6402 10.8976 10.6657 10.7909C10.6884 10.6919 10.7297 10.5981 10.7872 10.5145C10.8408 10.4348 10.9121 10.3686 10.9955 10.3211C11.0869 10.2716 11.1897 10.247 11.2936 10.2496C11.4105 10.245 11.5266 10.2713 11.6302 10.326C11.7173 10.3763 11.7911 10.4469 11.8453 10.5319C11.9005 10.6226 11.9394 10.7224 11.96 10.8267C11.9837 10.9438 11.9953 11.063 11.9948 11.1824C11.9953 11.2887 11.9807 11.3945 11.9514 11.4966V11.4966ZM11.9948 10.1056H11.9851C11.9016 9.94387 11.7711 9.8114 11.6109 9.72566C11.4493 9.64724 11.2714 9.60847 11.092 9.61256C10.9081 9.60779 10.7256 9.64664 10.5595 9.72592C10.3934 9.80521 10.2484 9.9227 10.1361 10.0688C10.0242 10.2129 9.94043 10.3769 9.88922 10.5522C9.83299 10.736 9.8047 10.9273 9.80531 11.1196C9.8045 11.319 9.82848 11.5177 9.87669 11.7112C9.92163 11.8855 9.99956 12.0496 10.1062 12.1945C10.2118 12.3343 10.349 12.447 10.5065 12.5232C10.6875 12.6076 10.8856 12.649 11.0852 12.644C11.2645 12.6447 11.4416 12.6058 11.6041 12.53C11.7654 12.4558 11.8984 12.3314 11.9832 12.1752H11.9928V12.5773C12.0085 12.766 11.9591 12.9543 11.853 13.1109C11.7961 13.1804 11.7224 13.234 11.6389 13.2666C11.547 13.3049 11.4489 13.3258 11.3495 13.3284C10.9965 13.3352 10.9039 13.2501 10.8209 13.1834C10.6936 13.0868 10.7245 12.906 10.3995 12.906H9.90852C9.91539 13.0644 9.9647 13.218 10.0513 13.3507C10.132 13.4732 10.2383 13.5767 10.3628 13.6542C10.4919 13.7333 10.6325 13.792 10.7795 13.8282C10.9259 13.8646 11.0761 13.8834 11.227 13.8843C11.5081 13.8956 11.7884 13.8475 12.0497 13.7431C12.2307 13.6658 12.3914 13.5477 12.5195 13.398C12.6233 13.2708 12.6957 13.1208 12.7307 12.9601C12.7613 12.823 12.7778 12.683 12.7799 12.5425V9.69956H12.4134C12.3049 9.70023 12.2008 9.7428 12.1228 9.81843C12.0449 9.89405 11.999 9.9969 11.9948 10.1056V10.1056ZM8.65561 10.2119V12.7388H8.97969C9.11263 12.7375 9.23964 12.6835 9.33292 12.5885C9.42621 12.4936 9.47815 12.3655 9.47738 12.2322V9.69376H9.16777C9.03165 9.69554 8.90168 9.75085 8.80587 9.84777C8.71007 9.94469 8.6561 10.0755 8.65561 10.2119ZM7.83963 9.65993C7.74289 9.691 7.651 9.73559 7.56667 9.79236C7.48159 9.84894 7.40578 9.9184 7.34194 9.99826C7.27689 10.0768 7.2242 10.1648 7.18569 10.2593H7.17411V9.69376H6.89923C6.83254 9.69325 6.76642 9.70602 6.7047 9.73133C6.64297 9.75664 6.58689 9.79399 6.53969 9.8412C6.49249 9.88842 6.45511 9.94456 6.42974 10.0064C6.40437 10.0682 6.3915 10.1344 6.39189 10.2013V12.7388H6.74104C7.01786 12.7388 7.21366 12.5831 7.21366 12.2216V11.3671C7.2127 11.237 7.22661 11.1073 7.25513 10.9804C7.27869 10.869 7.32499 10.7637 7.39113 10.6711C7.4556 10.5812 7.54193 10.5093 7.6419 10.4623C7.7629 10.4072 7.8949 10.3808 8.02771 10.3849C8.07994 10.3849 8.13213 10.3881 8.18396 10.3946C8.23797 10.4004 8.28041 10.4072 8.32382 10.4139V9.6406C8.26581 9.62184 8.20536 9.61174 8.14442 9.61063C8.04225 9.61049 7.94069 9.62647 7.84349 9.658L7.83963 9.65993ZM5.18721 10.1993V11.2897C5.18721 11.6 5.13705 11.8224 5.03675 11.9587C4.93644 12.095 4.77536 12.1617 4.55449 12.1617C4.36158 12.1617 4.22494 12.0998 4.14457 11.9761C4.05649 11.802 4.01684 11.6073 4.02979 11.4125V9.69279H3.69896C3.56585 9.69407 3.43869 9.74823 3.34538 9.84337C3.25207 9.93852 3.20024 10.0669 3.20127 10.2003V11.5691C3.19987 11.7418 3.21636 11.9141 3.25046 12.0834C3.2777 12.2258 3.33599 12.3605 3.42118 12.4778C3.50709 12.59 3.62175 12.6769 3.75297 12.7291C3.92536 12.793 4.10844 12.8228 4.29214 12.8171C4.46866 12.8164 4.64275 12.7757 4.8014 12.6982C4.97277 12.6143 5.11397 12.4792 5.20554 12.3115H5.22193C5.22142 12.3669 5.23184 12.4218 5.25257 12.4732C5.27331 12.5245 5.30396 12.5712 5.34277 12.6107C5.38157 12.6501 5.42777 12.6814 5.4787 12.7029C5.52964 12.7244 5.58431 12.7356 5.63957 12.7359H6.00512V9.69279H5.68008C5.54697 9.69433 5.4199 9.74873 5.32678 9.84406C5.23365 9.93939 5.18207 10.0679 5.18335 10.2013" fill="#EE3437"/>
<path d="M16.8173 9.47333H16.8713C16.934 9.47333 16.9861 9.45206 16.9861 9.39986C16.9861 9.34766 16.9523 9.32253 16.88 9.32253C16.8588 9.32175 16.8377 9.32403 16.8173 9.32929V9.47333ZM16.8173 9.7556H16.7034V9.25389C16.767 9.24141 16.8316 9.23526 16.8964 9.23553C16.9565 9.22972 17.0168 9.24399 17.068 9.27613C17.0835 9.28935 17.0958 9.30583 17.1041 9.32438C17.1124 9.34293 17.1166 9.36309 17.1163 9.38343C17.1147 9.41203 17.1037 9.43931 17.0851 9.461C17.0664 9.48269 17.0411 9.49757 17.0131 9.50329V9.5091C17.0382 9.51888 17.0601 9.53561 17.0761 9.55734C17.0921 9.57907 17.1017 9.6049 17.1037 9.63186C17.1079 9.67478 17.1203 9.71649 17.1404 9.75463H17.0169C16.9976 9.71697 16.9843 9.67653 16.9774 9.63476C16.9687 9.57966 16.9378 9.5555 16.8751 9.5555H16.8202L16.8173 9.7556ZM16.8935 9.09246C16.787 9.09323 16.6853 9.13634 16.6106 9.21229C16.5359 9.28825 16.4943 9.39084 16.4951 9.4975C16.4959 9.60415 16.5389 9.70613 16.6147 9.781C16.6905 9.85587 16.7928 9.8975 16.8992 9.89673C16.9505 9.89561 17.001 9.88427 17.0479 9.86337C17.0947 9.84246 17.1369 9.81241 17.172 9.77497C17.2071 9.73753 17.2344 9.69345 17.2523 9.64531C17.2703 9.59717 17.2784 9.54594 17.2764 9.4946C17.2784 9.44302 17.2702 9.39154 17.2521 9.34321C17.234 9.29489 17.2064 9.25068 17.171 9.2132C17.1356 9.17572 17.093 9.14573 17.0459 9.12499C16.9987 9.10425 16.9479 9.09319 16.8964 9.09246H16.8935ZM16.8992 8.99579C16.9987 8.99751 17.0954 9.02866 17.1773 9.08533C17.2591 9.142 17.3224 9.22166 17.3592 9.31429C17.396 9.40692 17.4047 9.50839 17.3841 9.60593C17.3635 9.70347 17.3146 9.79273 17.2435 9.86249C17.1724 9.93225 17.0824 9.97939 16.9846 9.99798C16.8869 10.0166 16.7859 10.0058 16.6942 9.96699C16.6026 9.92819 16.5245 9.8631 16.4696 9.7799C16.4148 9.69671 16.3858 9.59913 16.3861 9.49943C16.3856 9.43255 16.3983 9.36623 16.4236 9.30432C16.4488 9.24241 16.4861 9.18613 16.5332 9.13875C16.5803 9.09137 16.6363 9.05382 16.698 9.02829C16.7596 9.00275 16.8258 8.98974 16.8925 8.98999L16.8992 8.99579Z" fill="#EE3437"/>
<path d="M56.403 27.0387C56.3615 26.74 56.13 26.5834 55.8079 26.5834C55.3131 26.5834 55.1231 27.0222 55.1231 27.4601C55.1231 27.898 55.316 28.3379 55.8079 28.3379C56.1676 28.3379 56.3741 28.131 56.403 27.7917H57.1746C57.1341 28.5534 56.5766 29 55.8243 29C54.9321 29 54.3534 28.3176 54.3534 27.4601C54.3534 26.6027 54.9321 25.9202 55.8243 25.9202C56.4599 25.9202 57.1495 26.3262 57.1746 27.0387H56.403Z" fill="#2A2D2E"/>
<path d="M57.7861 25.983H58.5577V28.276H59.9331V28.9381H57.7861V25.983Z" fill="#2A2D2E"/>
<path d="M61.8573 25.9202C62.7871 25.9202 63.3109 26.6037 63.3109 27.4601C63.3109 28.3166 62.79 29 61.8573 29C60.9247 29 60.4038 28.3176 60.4038 27.4601C60.4038 26.6027 60.9285 25.9202 61.8573 25.9202ZM61.8573 28.3369C62.3531 28.3369 62.5431 27.898 62.5431 27.4592C62.5431 27.0203 62.3502 26.5824 61.8573 26.5824C61.3645 26.5824 61.1716 27.0213 61.1716 27.4592C61.1716 27.8971 61.3616 28.3379 61.8573 28.3379V28.3369Z" fill="#2A2D2E"/>
<path d="M66.4822 27.7172C66.4822 28.5737 66.0906 29 65.1984 29C64.3062 29 63.9137 28.5737 63.9137 27.7172V25.983H64.6853V27.7627C64.6853 28.1435 64.8261 28.3378 65.2023 28.3378C65.5785 28.3378 65.7183 28.1445 65.7183 27.7627V25.983H66.4899L66.4822 27.7172Z" fill="#2A2D2E"/>
<path d="M67.2007 25.983H68.469C69.3728 25.983 69.9158 26.5331 69.9158 27.4475C69.9158 28.4142 69.367 28.9381 68.469 28.9381H67.2007V25.983ZM67.9723 28.276H68.3359C68.9146 28.2634 69.15 28.0353 69.15 27.4437C69.15 26.9062 68.8606 26.6452 68.3359 26.6452H67.9723V28.276Z" fill="#2A2D2E"/>
</g>
<defs>
<linearGradient id="paint0_linear" x1="64.5733" y1="6.34333" x2="69.476" y2="6.34333" gradientUnits="userSpaceOnUse">
<stop stop-color="#BCBEC0"/>
<stop offset="0.09" stop-color="#C7C9CA"/>
<stop offset="0.3" stop-color="#D8DADB"/>
<stop offset="0.51" stop-color="#E3E4E5"/>
<stop offset="0.77" stop-color="#E6E7E8"/>
</linearGradient>
<linearGradient id="paint1_linear" x1="2866.78" y1="818.671" x2="3080.9" y2="818.671" gradientUnits="userSpaceOnUse">
<stop stop-color="#BCBEC0"/>
<stop offset="0.09" stop-color="#C7C9CA"/>
<stop offset="0.3" stop-color="#D8DADB"/>
<stop offset="0.51" stop-color="#E3E4E5"/>
<stop offset="0.77" stop-color="#E6E7E8"/>
</linearGradient>
<linearGradient id="paint2_linear" x1="69.1269" y1="-0.0564623" x2="61.3518" y2="12.6957" gradientUnits="userSpaceOnUse">
<stop stop-color="#A7A9AC"/>
<stop offset="0.34" stop-color="#898A8D"/>
<stop offset="0.64" stop-color="#747679"/>
<stop offset="0.85" stop-color="#6D6E71"/>
<stop offset="1" stop-color="#6D6E71"/>
</linearGradient>
<linearGradient id="paint3_linear" x1="4617.73" y1="243.308" x2="4143.94" y2="837.986" gradientUnits="userSpaceOnUse">
<stop stop-color="#A7A9AC"/>
<stop offset="0.34" stop-color="#898A8D"/>
<stop offset="0.64" stop-color="#747679"/>
<stop offset="0.85" stop-color="#6D6E71"/>
<stop offset="1" stop-color="#6D6E71"/>
</linearGradient>
<linearGradient id="paint4_linear" x1="5172.4" y1="472.595" x2="4751.77" y2="1034.53" gradientUnits="userSpaceOnUse">
<stop stop-color="#A7A9AC"/>
<stop offset="0.34" stop-color="#898A8D"/>
<stop offset="0.64" stop-color="#747679"/>
<stop offset="0.85" stop-color="#6D6E71"/>
<stop offset="1" stop-color="#6D6E71"/>
</linearGradient>
<linearGradient id="paint5_linear" x1="2765.21" y1="231.087" x2="2668.44" y2="388.686" gradientUnits="userSpaceOnUse">
<stop stop-color="#A7A9AC"/>
<stop offset="0.34" stop-color="#898A8D"/>
<stop offset="0.64" stop-color="#747679"/>
<stop offset="0.85" stop-color="#6D6E71"/>
<stop offset="1" stop-color="#6D6E71"/>
</linearGradient>
<linearGradient id="paint6_linear" x1="3308.9" y1="227.449" x2="3207.32" y2="411.013" gradientUnits="userSpaceOnUse">
<stop stop-color="#A7A9AC"/>
<stop offset="0.34" stop-color="#898A8D"/>
<stop offset="0.64" stop-color="#747679"/>
<stop offset="0.85" stop-color="#6D6E71"/>
<stop offset="1" stop-color="#6D6E71"/>
</linearGradient>
<clipPath id="clip0">
<rect width="76" height="29" fill="white"/>
</clipPath>
</defs>
</svg>
