<svg xmlns="http://www.w3.org/2000/svg" viewBox="0 0 458.35 314.11"><path d="M71.38,285.31l15-15.06h50.7a2,2,0,0,0,1.93,1.39,2.06,2.06,0,0,0,.89-3.91,2,2,0,0,0-2.7.86,1.66,1.66,0,0,0-.12.31H85.85l-15,15.1H17.87l-14-14a2,2,0,0,0,.23-.93,2.11,2.11,0,0,0-.21-.89A2,2,0,0,0,0,269a2.06,2.06,0,0,0,2.06,2.06,2,2,0,0,0,.85-.2l14.39,14.45ZM138.68,269a.73.73,0,0,1,.36-.11.71.71,0,0,1,.71.71.76.76,0,0,1-.71.71.71.71,0,0,1-.71-.71A.69.69,0,0,1,138.68,269ZM2.77,269a1.7,1.7,0,0,1,0,.22l-.06.14a.76.76,0,0,1-.23.24.79.79,0,0,1-.33.1.69.69,0,0,1-.52-.24A.64.64,0,0,1,1.4,269a.68.68,0,0,1,.35-.6.64.64,0,0,1,.36-.11.71.71,0,0,1,.66.47A1,1,0,0,1,2.77,269Z" fill="#c5c9e0"/><path d="M96.25,299.59a2.06,2.06,0,1,0-1.93-2.73H19.51a.65.65,0,0,0-.08-.22,2.14,2.14,0,0,0-3.71-.13,1.93,1.93,0,0,0-.23,1,2,2,0,0,0,4,.68h74.8A2,2,0,0,0,96.25,299.59ZM95.9,297a.61.61,0,0,1,.35-.11.7.7,0,0,1,.71.69h0a.66.66,0,0,1-.11.36.7.7,0,0,1-1.3-.35A.68.68,0,0,1,95.9,297Zm-77.72.9v.05a.7.7,0,0,1-1.3-.35h0a.66.66,0,0,1,.35-.59.62.62,0,0,1,.35-.12.71.71,0,0,1,.71.71A.68.68,0,0,1,18.18,297.89Z" fill="#c5c9e0"/><path d="M384.38,247l-.19-.2H321.31a.65.65,0,0,0-.08-.22,2.07,2.07,0,0,0-2.76-.94,2,2,0,0,0,.92,3.88,2.08,2.08,0,0,0,1.93-1.37h62.31l30.05,30.12.19.19H458.3v-1.35H414.44Zm-64.37.85,0,0a.7.7,0,0,1-1.31-.36.67.67,0,0,1,.35-.59.65.65,0,0,1,.36-.12.87.87,0,0,1,.22.05h.08a.72.72,0,0,1,.41.63A.84.84,0,0,1,320,247.85Z" fill="#c5c9e0"/><path d="M458.32,266.46H418.58l-30.05-30.11-.2-.2h-67a.65.65,0,0,0-.08-.22,2.07,2.07,0,0,0-2.76-.94,2,2,0,0,0,.92,3.88,2.08,2.08,0,0,0,1.93-1.37h66.45l30,30.12.2.19h40.28ZM320,237.18h0a.7.7,0,0,1-1.31-.36.67.67,0,0,1,.35-.59.65.65,0,0,1,.36-.12.81.81,0,0,1,.22,0h.08a.72.72,0,0,1,.41.63A.74.74,0,0,1,320,237.18Z" fill="#c5c9e0"/><path d="M326.32,97.79a2,2,0,0,0,2.34-1.66h36.76l60-60.17h32.82V34.67H424.92l-60,60.16h-36.2v.1l-.12-.32a2.14,2.14,0,0,0-.95-1,2,2,0,0,0-2.71.81,1.9,1.9,0,0,0-.24,1A2,2,0,0,0,326.32,97.79Zm.07-2.91a.64.64,0,0,1,.36-.11.7.7,0,0,1,.7.7h0a.72.72,0,0,1-.1.38v0a.73.73,0,0,1-.6.36.71.71,0,0,1-.71-.71A.68.68,0,0,1,326.39,94.88Z" fill="#c5c9e0"/><path d="M458.34,228.27H413l-46.28-46.43-.2-.2H346.15a1.43,1.43,0,0,0-.08-.22,2.07,2.07,0,0,0-2.74-1,2.08,2.08,0,1,0,2.84,2.54H366l46.33,46.43.19.2h45.81ZM344.89,182.53l-.06.13a.69.69,0,0,1-.59.35.71.71,0,0,1-.71-.71.67.67,0,0,1,.35-.59.64.64,0,0,1,.36-.11h.17a.58.58,0,0,1,.17.06l.07.05.09.06a.71.71,0,0,1,.21.5A1.1,1.1,0,0,1,344.89,182.53Z" fill="#c5c9e0"/><path d="M406.5,4.14a2,2,0,0,0,1-.23l16.39,16.43h34.37V19h-33.8l-16-16a2.11,2.11,0,0,0,.21-.89,2.33,2.33,0,0,0-.21-.9A2.08,2.08,0,0,0,406.64,0a2,2,0,0,0-2.05,2.05h0A2,2,0,0,0,406.5,4.14Zm-.16-2.66a.61.61,0,0,1,.35-.11.71.71,0,0,1,.61.36l.07.15a.43.43,0,0,1,0,.16v0l-.06.19-.06.13a.73.73,0,0,1-.22.24.7.7,0,0,1-.34.1h-.21l-.14-.07a.69.69,0,0,1,0-1.2Z" fill="#c5c9e0"/><path d="M408.35,288.19,386.2,312.63a2.11,2.11,0,0,0-.82-.17,2.06,2.06,0,0,0-2,1.65h1.46a.73.73,0,0,1,.2-.19.65.65,0,0,1,.36-.12h.24l.13.08a1.15,1.15,0,0,1,.14.17h1.47a2.16,2.16,0,0,0-.14-.43v-.13L409,289.54h49.36v-1.35Z" fill="#c5c9e0"/><path d="M425.4,98.39a2,2,0,0,0-.89-.22,2.08,2.08,0,1,0,2.06,2.13,2.14,2.14,0,0,0-.22-1L437,88.69h21.32V87.34H436.42Zm-.29,2.2a.7.7,0,0,1-1.31-.36.67.67,0,0,1,.35-.59.65.65,0,0,1,.36-.12.71.71,0,0,1,.71.71A.89.89,0,0,1,425.11,100.59Z" fill="#c5c9e0"/><path d="M393.64,142.74h64.67v-1.35H394.19l-13.8-13.89H358.21L343.73,142a1.84,1.84,0,0,0-.65-.13,2.07,2.07,0,0,0-2.08,2s0,.05,0,.08a2.06,2.06,0,1,0,4.12.07,2.14,2.14,0,0,0-.22-1,1.37,1.37,0,0,0-.13-.2l14-14h21.06ZM343.77,144a.7.7,0,0,1-.69.71.71.71,0,0,1-.71-.71.68.68,0,0,1,.35-.6h.1a.58.58,0,0,1,.26-.06.57.57,0,0,1,.26,0,.51.51,0,0,1,.13.09l.08.05a.77.77,0,0,1,.22.45Z" fill="#c5c9e0"/><path d="M328.72,158.61a2.09,2.09,0,0,0-.13-.35,2,2,0,0,0-3.9.89,2.06,2.06,0,0,0,3.95.81h15.19l14-14.06a2.19,2.19,0,0,0,.63.11,2.06,2.06,0,0,0,2-2.06,2.33,2.33,0,0,0-.21-.9,2.14,2.14,0,0,0-.95-1,2,2,0,0,0-2.71.81,1.9,1.9,0,0,0-.24,1,2.08,2.08,0,0,0,.34,1.13l-13.5,13.53Zm-1.3.73a.77.77,0,0,1-.07.16.88.88,0,0,1-.23.24h-.07a.55.55,0,0,1-.3.09.71.71,0,0,1-.71-.71.73.73,0,0,1,.71-.71.67.67,0,0,1,.44.17,1.06,1.06,0,0,1,.19.23.63.63,0,0,1,.07.3A.85.85,0,0,1,327.42,159.34Zm30.71-15.94a.64.64,0,0,1,.36-.11.7.7,0,0,1,.7.7h0a.74.74,0,0,1-.1.35,1.21,1.21,0,0,1-.19.2.26.26,0,0,1-.09.06.63.63,0,0,1-.32.1.57.57,0,0,1-.26,0,.56.56,0,0,1-.15-.1H358a.72.72,0,0,1-.22-.43.17.17,0,0,1,0-.1l0-.08A.68.68,0,0,1,358.13,143.4Z" fill="#c5c9e0"/><path d="M299.15,113.67a2.07,2.07,0,0,0,1.92-1.37h67.58L431,49.85h27.3V48.5H430.44L368.1,111h-67a.65.65,0,0,0-.08-.22,2.15,2.15,0,0,0-1-1,2,2,0,0,0-.89-.21,2.05,2.05,0,1,0,0,4.1Zm-.38-2.62a.64.64,0,0,1,.36-.11.71.71,0,0,1,.71.71.88.88,0,0,1-.1.35h0a.69.69,0,0,1-.6.36.71.71,0,0,1-.37-1.31Z" fill="#c5c9e0"/><path d="M458.3,154.11H434.61l-21.27,21.31a2,2,0,0,0-2.71.82,2,2,0,0,0-.23,1,2.06,2.06,0,1,0,4.12.07,2.14,2.14,0,0,0-.22-1l20.87-20.92H458.3Zm-45.17,23.34v.07a.09.09,0,0,0,0,.07.69.69,0,0,1-.6.36.71.71,0,0,1-.37-1.31.61.61,0,0,1,.35-.11.86.86,0,0,1,.27.05,1.14,1.14,0,0,1,.23.15.91.91,0,0,1,.15.23.42.42,0,0,1,0,.49Z" fill="#c5c9e0"/><path d="M406.36,306.5a2,2,0,0,0-3,1.85,2.06,2.06,0,0,0,4.12,0,2,2,0,0,0-.22-.89l6.46-6.47h44.52v-1.35h-45Zm-.2,2-.05.12v.08a.71.71,0,0,1-1,.27.71.71,0,0,1,0-1.22.58.58,0,0,1,.36-.12.64.64,0,0,1,.23.05l.12.09a.68.68,0,0,1,.25.28v.24a.75.75,0,0,1,.05.16Z" fill="#c5c9e0"/><path d="M377.5,171.11a2.15,2.15,0,0,0-1-1,2,2,0,0,0-.89-.21,2.06,2.06,0,0,0-2.06,2,2,2,0,0,0,1.91,2.08,2.09,2.09,0,0,0,1-.24l.43.44,14.6,14.62h27.7L441.12,167H458.3v-1.35H440.56l-21.85,21.89H392.12L377.59,173l-.1-.1a2,2,0,0,0,.22-.89A2.16,2.16,0,0,0,377.5,171.11Zm-1.25,1.23a.7.7,0,0,1-.6.35.69.69,0,0,1-.71-.69h0a.7.7,0,0,1,.34-.6.64.64,0,0,1,.36-.11.71.71,0,0,1,.71.71.88.88,0,0,1-.1.35Z" fill="#c5c9e0"/><path d="M436,112.6l11-11a1.35,1.35,0,0,1-1-.92l-10.57,10.6h-31.7a1.43,1.43,0,0,0-.08-.22,2,2,0,0,0-1-1,2,2,0,0,0-.89-.22,2.08,2.08,0,1,0,1.94,2.74v0Zm-33.48-.47v.08l-.07.1a.65.65,0,0,1-.56.32.7.7,0,0,1-.82-.58.57.57,0,0,1,0-.13h0a.67.67,0,0,1,.35-.59.65.65,0,0,1,.36-.12.73.73,0,0,1,.71.71Z" fill="#c5c9e0"/><path d="M286.56,163.42h.05a2.1,2.1,0,0,0,1-.29l9.62,9.64h59.35a2.07,2.07,0,1,0,0-1.35H297.81l-9.29-9.31a2.06,2.06,0,0,0-.07-1.65,2.14,2.14,0,0,0-.95-1,2,2,0,0,0-2.71.81,1.9,1.9,0,0,0-.24,1A2.06,2.06,0,0,0,286.56,163.42Zm71.59,8.05.1-.05a.6.6,0,0,1,.27-.07.7.7,0,0,1,.71.69h0a.66.66,0,0,1-.11.36.7.7,0,0,1-1.3-.35A.69.69,0,0,1,358.15,171.47Zm-71.9-10.71a.64.64,0,0,1,.36-.11.73.73,0,0,1,.59.35l.07.15a.38.38,0,0,1,0,.15v.06a.81.81,0,0,1,0,.22l-.06.13a.73.73,0,0,1-.22.24.67.67,0,0,1-.33.1h-.05a.7.7,0,0,1-.66-.7h-.05A.68.68,0,0,1,286.25,160.76Z" fill="#c5c9e0"/><path d="M219.29,164.42a2,2,0,0,0,1.09-.32l32.26,32.32.2.2h110.4l51,51.14a2.18,2.18,0,0,0,1.59,3.3,2.07,2.07,0,0,0,2.2-1.91v-.29a2.33,2.33,0,0,0-.21-.9A2.11,2.11,0,0,0,416,246.8a1.84,1.84,0,0,0-.66.12L364,195.49l-.2-.2H253.42l-32.18-32.24a2.62,2.62,0,0,0,.12-.68,2.33,2.33,0,0,0-.21-.9,2.07,2.07,0,0,0-2.74-1,2.06,2.06,0,0,0,.88,3.92Zm196,84.46a.68.68,0,0,1,.35-.6.61.61,0,0,1,.35-.11.71.71,0,0,1,.71.71.61.61,0,0,1-.11.35.69.69,0,0,1-.6.36.7.7,0,0,1-.7-.7ZM218.94,161.76a.61.61,0,0,1,.35-.11.72.72,0,0,1,.34.09.71.71,0,0,1,.18.12.86.86,0,0,1,.15.22,1.09,1.09,0,0,1,0,.26.61.61,0,0,1-.11.35.69.69,0,0,1-.6.36.7.7,0,0,1-.7-.7h0v0A.68.68,0,0,1,218.94,161.76Z" fill="#c5c9e0"/><path d="M382.44,257.89a2.12,2.12,0,0,0-1-1,2,2,0,0,0-2.7.87,1.66,1.66,0,0,0-.12.31H319.1l-21.55,21.6H260.32l-16.14-16.17a2,2,0,0,0,.22-.91,2.33,2.33,0,0,0-.21-.9,2.07,2.07,0,0,0-2.74-1,2.07,2.07,0,0,0,.89,3.93,2,2,0,0,0,.88-.21l16.54,16.58h38.35l21.55-21.6h59a2,2,0,1,0,3.87-1.35Zm-139.43,5L243,263a1,1,0,0,1-.22.23.79.79,0,0,1-.33.1h-.24a.67.67,0,0,1-.2-.12.68.68,0,0,1,.08-1.14.61.61,0,0,1,.35-.11.73.73,0,0,1,.66.43.67.67,0,0,1,.06.28A1.24,1.24,0,0,1,243,262.85Zm138.16-3.72a.69.69,0,0,1-.6.36h-.12a.69.69,0,0,1-.36-.18.67.67,0,0,1-.21-.5v-.08a.79.79,0,0,1,.06-.22v-.08a.63.63,0,0,1,.22-.21.37.37,0,0,1,.18-.08h.19a.71.71,0,0,1,.71.71A.89.89,0,0,1,381.17,259.13Z" fill="#c5c9e0"/><path d="M195.56,237.38h.12a2,2,0,0,0,.85-.19l14,14h34.84l17.43,17.47a2,2,0,0,0-.2.87,2.06,2.06,0,1,0,4.12.07,2.14,2.14,0,0,0-.22-1,2,2,0,0,0-2.65-1l-.1.05-17.83-17.87H211.09l-13.57-13.59a2.18,2.18,0,0,0,.24-.94,2,2,0,0,0-.22-.89,2,2,0,0,0-1.84-1.21,2.1,2.1,0,0,0-.14,4.19Zm68.8,31.6h.1a.59.59,0,0,1,.23-.05.63.63,0,0,1,.41.15L265,269a.71.71,0,0,1,.43.65.74.74,0,0,1-.1.35.7.7,0,0,1-1.31-.35v0A.68.68,0,0,1,264.36,269Zm-69-34.25a.64.64,0,0,1,.36-.11.7.7,0,0,1,.71.69h0a.89.89,0,0,1-.11.36.7.7,0,0,1-1.31-.36A.67.67,0,0,1,195.36,234.73Z" fill="#c5c9e0"/><path d="M221.57,260.78a2,2,0,0,0-2.7.86,1.89,1.89,0,0,0-.13.33H195.4l-20,20H96.25v1.35H176l20-20h22.8a2,2,0,0,0,1.92,1.37,2.06,2.06,0,0,0,2.06-2.06,2.33,2.33,0,0,0-.21-.9A2.1,2.1,0,0,0,221.57,260.78Zm-.29,2.22v0a.69.69,0,0,1-.6.36.7.7,0,0,1-.7-.7h0a.68.68,0,0,1,.35-.6.61.61,0,0,1,.35-.11.71.71,0,0,1,.71.71A.7.7,0,0,1,221.28,263Z" fill="#c5c9e0"/><path d="M177.69,292a2.13,2.13,0,0,0-.95-.95,2,2,0,0,0-.9-.21,2,2,0,0,0-1.93,1.38H138.76l-16.46,16.5a2,2,0,0,0-.89-.22,2.07,2.07,0,1,0,2.06,2.09,2.1,2.1,0,0,0-.21-.92l16.06-16.1h34.59a2,2,0,1,0,3.87-1.35ZM122,310.92a.7.7,0,0,1-1.31-.36A.68.68,0,0,1,121,310a.65.65,0,0,1,.36-.12.71.71,0,0,1,.71.71A.93.93,0,0,1,122,310.92Zm54.44-17.67a.71.71,0,0,1-.61.35h-.15a.49.49,0,0,1-.17-.06.34.34,0,0,1-.14-.09.64.64,0,0,1-.21-.5.56.56,0,0,1,.09-.31v-.05a.71.71,0,0,1,.41-.31h.19a.7.7,0,0,1,.71.69h0A.83.83,0,0,1,176.45,293.25Z" fill="#c5c9e0"/><path d="M121.29,292.91h0a2.17,2.17,0,0,0-.22-.9,2.09,2.09,0,0,0-1-.95,2,2,0,0,0-3,1.85,1.9,1.9,0,0,0,.21.88l-14.59,14.63H46.29L41,313.68h1.91l3.91-3.92h56.48l15-15a2.18,2.18,0,0,0,.91.22A2.07,2.07,0,0,0,121.29,292.91Zm-1.46.34a.71.71,0,0,1-1,.27.71.71,0,0,1,0-1.22.64.64,0,0,1,.36-.11.71.71,0,0,1,.71.71A.89.89,0,0,1,119.83,293.25Z" fill="#c5c9e0"/></svg>
