<?xml version="1.0" encoding="utf-8"?>
<!-- Generator: Adobe Illustrator 24.1.2, SVG Export Plug-In . SVG Version: 6.00 Build 0)  -->
<svg fill="#12636A" width="18" height="18" version="1.1" id="Layer_1" xmlns="http://www.w3.org/2000/svg" xmlns:xlink="http://www.w3.org/1999/xlink" x="0px" y="0px"
	 viewBox="0 0 32 32" style="enable-background:new 0 0 32 32;" xml:space="preserve">
<path d="M9.1,14.8H6v3H3v-3H0v-1.3c0-0.8,0.7-1.5,1.5-1.5h4.7v-1.6H0V3h3V0h3v3h3.1v1.2c0,0.9-0.7,1.6-1.6,1.6H2.9v1.6h6.2v2.9V14.8
	z M32,15.5h-2.4V25H32v7H13.5V17.8h10.9V25h2.2v-9.5H13.4v-1.4h13.2v-2.4h3v2.4H32V15.5z M23,26.4v-7.2h-8.1v11.4h15.7l0-4.2H23z
	 M32,18.8v-1.7h-1.5v1.7H32z M16.4,22h1.5v-1.7h-1.5V22z M20,22h1.5v-1.7H20V22z M16.4,25.7h1.5V24h-1.5V25.7z M20,25.7h1.5V24H20
	V25.7z M16.4,29.4h1.5v-1.7h-1.5V29.4z M20,29.4h1.5v-1.7H20V29.4z M25.6,27.7h-1.5v1.7h1.5V27.7z M29.1,27.7h-1.5v1.7h1.5V27.7z
	 M13.9,7.6h10.6v3.2H26V6.1H13.9V4.4l-3.1,2.4l3.1,2.4V7.6z M8.8,24.2H7.8v-4.9H6.3v6.4h2.4v1.7l3.1-2.4l-3.1-2.4V24.2z"/>
</svg>
