<?xml version="1.0" encoding="utf-8"?>
<!-- Generator: Adobe Illustrator 24.1.2, SVG Export Plug-In . SVG Version: 6.00 Build 0)  -->
<svg version="1.1" id="Layer_1" xmlns="http://www.w3.org/2000/svg" xmlns:xlink="http://www.w3.org/1999/xlink" x="0px" y="0px"
	 viewBox="0 0 15.9 12.5" style="enable-background:new 0 0 15.9 12.5;" xml:space="preserve">
<path d="M15.9,5.7v5.8h-3.4V11c0-0.5,0.4-1,0.9-1h1V7.3H1.5V10h0.9c0.5,0,0.9,0.4,1,0.9v0.5H0V5.7H15.9z M5.1,9l-0.7,3.5h7.2L10.8,9
	H5.1z M2.9,9H4V7.9H2.9V9z M5.7,0.8h2.8v0.7c0,0.6,0.4,1,0.9,1c0,0,0.1,0,0.1,0h0.7v1.7H11V2.6l-0.8-0.8l-1-1L8.4,0H4.9v4.2h0.8V0.8
	z"/>
</svg>
