<svg width="18" height="18" xmlns="http://www.w3.org/2000/svg" viewBox="0 0 27.04 31.97"><defs><style>.a{fill:#12636A;}</style></defs><path class="a" d="M27,32H23.58l-5.32-5.32-.11-.12-1,1-4-4,3.89-3.89,4,4-1,1,.12.11,6.5,6.5A1.31,1.31,0,0,1,27,32ZM17.18,17.84l5.67,5.66.68-.68a1.36,1.36,0,0,0,0-1.94l-3.82-3.82a1.23,1.23,0,0,0-1.74,0Zm-6.51,6.52a1.37,1.37,0,0,0,0,1.93l3.82,3.82a1.24,1.24,0,0,0,1.75,0l.78-.78-5.66-5.66ZM5.2,23.82H2.77V3h7.59V6.2A1.85,1.85,0,0,0,12.21,8h3.25v4.71a1.86,1.86,0,0,0,1.86,1.86h1V8h0L15.62,5.26,13.09,2.73,10.42,0H0V26.7H7.13v-1A1.93,1.93,0,0,0,5.2,23.82Zm6.53-7.69V14.5H8.2V13.39h2.59a.93.93,0,0,0,.94-.93v-.69H10V10.3H8.3v1.47H6.57v4.36h3.52v1.11H7.44a.87.87,0,0,0-.87.87v.55H8.3v1.45H10V18.66h1.75Z"/></svg>