<?xml version="1.0" encoding="UTF-8"?>
<svg id="Layer_1" data-name="Layer 1"
    xmlns="http://www.w3.org/2000/svg" viewBox="0 0 262.03 246.36">
    <defs>
        <style>
      .cls-1 {
        fill: #0f3460;
        stroke: #0f3460;
        stroke-width: 3px;
      }

      .cls-1, .cls-2, .cls-3 {
        stroke-miterlimit: 10;
      }

      .cls-2 {
        fill: #71a5cb;
        stroke: #71a5cb;
      }

      .cls-2, .cls-3 {
        stroke-width: 5px;
      }

      .cls-3 {
        fill: #fe5e45;
        stroke: #fe5e45;
      }
        </style>
    </defs>
    <g>
        <path class="cls-2" d="m86.76,160.54h-13.34v-34.99c0-7.27-3.24-10.9-9.72-10.9-3.76,0-6.77,1.37-9.02,4.12-2.25,2.74-3.38,6.84-3.38,12.29v29.48h-13.51v-34.99c0-7.38-3.03-11.07-9.1-11.07-3.69,0-6.78,1.48-9.3,4.45-2.51,2.97-3.77,7.01-3.77,12.13v29.48H2.5v-56.18h12.34v11.96c4.02-8.75,10.29-13.13,18.82-13.13s13.7,4.38,16.19,13.13c4.54-8.75,10.81-13.13,18.82-13.13,5.43,0,9.81,1.69,13.12,5.06,3.31,3.37,4.97,7.56,4.97,12.57v39.71Z"/>
        <path class="cls-2" d="m137.9,142.63l11.5,1.56c-1.49,5.08-4.39,9.27-8.71,12.57-4.32,3.3-9.74,4.95-16.25,4.95-7.82,0-14.11-2.61-18.87-7.84-4.77-5.23-7.15-12.31-7.15-21.25s2.4-15.52,7.2-21.08,11.32-8.34,19.54-8.34,14.26,2.74,18.65,8.23c4.39,5.49,6.59,12.53,6.59,21.14l-.06,1.45h-38.69c0,3.82.36,6.88,1.09,9.18.73,2.3,2.17,4.3,4.33,6.01,2.16,1.71,4.86,2.56,8.1,2.56,6.29,0,10.53-3.04,12.73-9.12Zm-.78-16.8c-.04-4.04-1.26-7.34-3.66-9.9-2.4-2.56-5.37-3.84-8.91-3.84s-6.42,1.2-8.77,3.59-3.72,5.78-4.13,10.15h25.46Z"/>
        <path class="cls-2" d="m187.49,150.64v9.9c-3.8.82-6.74,1.22-8.82,1.22-3.43,0-6.37-.68-8.82-2.03s-4.25-3.21-5.39-5.56c-1.14-2.35-1.7-5.98-1.7-10.87v-29.09h-7.04v-9.84h7.76l1.17-14.63,10.44-.95v15.57h11.33v9.84h-11.33v27.42c0,3.52.64,5.92,1.93,7.2s3.71,1.92,7.29,1.92c1.01,0,2.07-.04,3.18-.11Z"/>
        <path class="cls-3" d="m258.34,160.54h-14.52l-11.84-31.2h-19.32v31.2h-13.74v-75.92h33.06c9.19,0,15.95,2.07,20.27,6.2,4.32,4.13,6.48,9.48,6.48,16.05,0,9.75-4.58,16.46-13.74,20.13l13.34,33.54Zm-45.67-42.16h17.09c4.95,0,8.64-1.04,11.06-3.11,2.42-2.08,3.63-4.93,3.63-8.57,0-3.34-1.19-6.03-3.57-8.09-2.38-2.06-5.71-3.09-9.99-3.09h-18.2v22.86Z"/>
    </g>
    <polygon class="cls-1" points="239.7 1.5 239.7 72.45 234.7 72.45 234.7 6.5 11.48 6.5 11.48 72.45 6.48 72.45 6.48 1.5 239.7 1.5"/>
    <polygon class="cls-1" points="239.7 173.93 239.7 244.86 6.55 244.86 6.55 173.93 11.55 173.93 11.55 239.86 234.71 239.86 234.71 173.93 239.7 173.93"/>
</svg>